<svg width="148" height="30" viewBox="0 0 148 30" fill="none" xmlns="http://www.w3.org/2000/svg">
<path fill-rule="evenodd" clip-rule="evenodd" d="M27.8333 15C27.8333 22.0877 22.0877 27.8333 15 27.8333C7.91234 27.8333 2.16666 22.0877 2.16666 15C2.16666 7.9123 7.91234 2.16666 15 2.16666C22.0877 2.16666 27.8333 7.9123 27.8333 15ZM30 15C30 23.2843 23.2843 30 15 30C6.71573 30 0 23.2843 0 15C0 6.71573 6.71573 0 15 0C23.2843 0 30 6.71573 30 15ZM23.2759 8.2759C23.2759 9.1329 22.5812 9.8276 21.7242 9.8276C20.8672 9.8276 20.1725 9.1329 20.1725 8.2759C20.1725 7.4189 20.8672 6.72418 21.7242 6.72418C22.5812 6.72418 23.2759 7.4189 23.2759 8.2759ZM10.4879 16.209C11.1556 18.7009 13.717 20.1797 16.2089 19.512C18.7008 18.8443 20.1796 16.2829 19.5119 13.791C18.8442 11.2991 16.2828 9.8203 13.7909 10.488C11.299 11.1557 9.82015 13.7171 10.4879 16.209ZM8.39503 16.7698C9.37244 20.4175 13.1219 22.5823 16.7696 21.6049C20.4174 20.6274 22.5821 16.878 21.6047 13.2302C20.6273 9.5825 16.8779 7.4177 13.2301 8.3952C9.58236 9.3726 7.41762 13.122 8.39503 16.7698Z" fill="url(#paint0_linear_0_1)"/>
<path d="M43.264 26.135C42.598 26.135 42.121 25.991 41.833 25.703C41.545 25.397 41.401 24.83 41.401 24.002C41.401 23.444 41.455 22.733 41.563 21.869C41.689 20.987 41.887 19.781 42.157 18.251C42.625 15.425 42.994 12.977 43.264 10.907C43.426 9.611 43.507 8.531 43.507 7.667C43.507 6.857 43.21 6.452 42.616 6.452C42.148 6.452 41.581 6.695 40.915 7.181C40.267 7.649 39.547 8.405 38.755 9.449C38.503 9.791 38.224 9.962 37.918 9.962C37.666 9.962 37.441 9.845 37.243 9.611C37.063 9.359 36.973 9.08 36.973 8.774C36.973 8.486 37.027 8.198 37.135 7.91C37.261 7.604 37.459 7.262 37.729 6.884C38.593 5.678 39.556 4.751 40.618 4.103C41.68 3.437 42.742 3.104 43.804 3.104C44.794 3.104 45.55 3.419 46.072 4.049C46.612 4.679 46.882 5.597 46.882 6.803C46.882 7.289 46.837 7.865 46.747 8.531C46.657 9.179 46.576 9.71 46.504 10.124C46.432 10.538 46.378 10.826 46.342 10.988C47.368 8.054 48.52 6.011 49.798 4.859C51.076 3.689 52.48 3.104 54.01 3.104C55.18 3.104 56.098 3.518 56.764 4.346C57.448 5.174 57.79 6.344 57.79 7.856C57.79 8.45 57.709 9.188 57.547 10.07C58.447 7.586 59.5 5.804 60.706 4.724C61.912 3.644 63.298 3.104 64.864 3.104C66.124 3.104 67.087 3.509 67.753 4.319C68.437 5.129 68.779 6.263 68.779 7.721C68.779 8.513 68.662 9.476 68.428 10.61L66.781 18.332C66.601 19.232 66.511 20.006 66.511 20.654C66.511 21.41 66.682 21.977 67.024 22.355C67.384 22.733 67.879 22.922 68.509 22.922C69.103 22.922 69.679 22.724 70.237 22.328C70.813 21.932 71.488 21.275 72.262 20.357C72.478 20.105 72.721 19.979 72.991 19.979C73.225 19.979 73.405 20.087 73.531 20.303C73.675 20.519 73.747 20.816 73.747 21.194C73.747 21.896 73.576 22.454 73.234 22.868C72.298 24.002 71.371 24.83 70.453 25.352C69.535 25.874 68.572 26.135 67.564 26.135C66.034 26.135 64.837 25.685 63.973 24.785C63.109 23.867 62.677 22.643 62.677 21.113C62.677 20.051 62.893 18.512 63.325 16.496L64.405 11.555C64.441 11.393 64.504 11.105 64.594 10.691C64.684 10.277 64.756 9.89 64.81 9.53C64.864 9.152 64.891 8.783 64.891 8.423C64.891 7.793 64.765 7.325 64.513 7.019C64.279 6.695 63.937 6.533 63.487 6.533C62.641 6.533 61.75 7.082 60.814 8.18C59.896 9.26 59.014 11.06 58.168 13.58C57.34 16.1 56.665 19.376 56.143 23.408C56.017 24.488 55.792 25.217 55.468 25.595C55.162 25.955 54.658 26.135 53.956 26.135C53.344 26.135 52.894 25.991 52.606 25.703C52.336 25.415 52.201 24.875 52.201 24.083C52.201 23.345 52.3 22.382 52.498 21.194C52.696 19.988 52.948 18.575 53.254 16.955C54.082 12.599 54.496 9.791 54.496 8.531C54.496 7.847 54.361 7.343 54.091 7.019C53.839 6.695 53.452 6.533 52.93 6.533C52.048 6.533 51.139 7.037 50.203 8.045C49.267 9.035 48.349 10.808 47.449 13.364C46.567 15.902 45.829 19.34 45.235 23.678C45.109 24.596 44.92 25.235 44.668 25.595C44.434 25.955 43.966 26.135 43.264 26.135ZM83.6134 19.979C83.8474 19.979 84.0274 20.087 84.1534 20.303C84.2974 20.519 84.3694 20.816 84.3694 21.194C84.3694 21.914 84.1984 22.472 83.8564 22.868C83.1904 23.678 82.2454 24.425 81.0214 25.109C79.8154 25.793 78.5194 26.135 77.1334 26.135C75.2434 26.135 73.7764 25.622 72.7324 24.596C71.6884 23.57 71.1664 22.166 71.1664 20.384C71.1664 19.142 71.4274 17.99 71.9494 16.928C72.4714 15.848 73.1914 14.993 74.1094 14.363C75.0454 13.733 76.0984 13.418 77.2684 13.418C78.3124 13.418 79.1494 13.733 79.7794 14.363C80.4094 14.975 80.7244 15.812 80.7244 16.874C80.7244 18.116 80.2744 19.187 79.3744 20.087C78.4924 20.969 76.9894 21.671 74.8654 22.193C75.3154 23.021 76.1704 23.435 77.4304 23.435C78.2404 23.435 79.1584 23.156 80.1844 22.598C81.2284 22.022 82.1284 21.275 82.8844 20.357C83.1004 20.105 83.3434 19.979 83.6134 19.979ZM76.8094 16.064C76.1434 16.064 75.5764 16.451 75.1084 17.225C74.6584 17.999 74.4334 18.935 74.4334 20.033V20.087C75.4954 19.835 76.3324 19.457 76.9444 18.953C77.5564 18.449 77.8624 17.864 77.8624 17.198C77.8624 16.856 77.7634 16.586 77.5654 16.388C77.3854 16.172 77.1334 16.064 76.8094 16.064ZM84.088 26.135C83.404 26.135 82.918 25.775 82.63 25.055C82.36 24.335 82.225 23.183 82.225 21.599C82.225 19.259 82.558 17.036 83.224 14.93C83.386 14.408 83.647 14.03 84.007 13.796C84.385 13.544 84.907 13.418 85.573 13.418C85.933 13.418 86.185 13.463 86.329 13.553C86.473 13.643 86.545 13.814 86.545 14.066C86.545 14.354 86.41 15.002 86.14 16.01C85.96 16.73 85.816 17.36 85.708 17.9C85.6 18.422 85.51 19.079 85.438 19.871C85.924 18.467 86.5 17.279 87.166 16.307C87.85 15.335 88.543 14.615 89.245 14.147C89.965 13.661 90.64 13.418 91.27 13.418C91.9 13.418 92.341 13.562 92.593 13.85C92.863 14.138 92.998 14.579 92.998 15.173C92.998 15.749 92.827 16.793 92.485 18.305C92.341 18.953 92.242 19.439 92.188 19.763C93.088 17.549 94.087 15.938 95.185 14.93C96.283 13.922 97.309 13.418 98.263 13.418C99.433 13.418 100.018 14.003 100.018 15.173C100.018 15.875 99.82 17.144 99.424 18.98C99.082 20.546 98.911 21.581 98.911 22.085C98.911 22.805 99.172 23.165 99.694 23.165C100.054 23.165 100.477 22.949 100.963 22.517C101.467 22.067 102.133 21.347 102.961 20.357C103.177 20.105 103.42 19.979 103.69 19.979C103.924 19.979 104.104 20.087 104.23 20.303C104.374 20.519 104.446 20.816 104.446 21.194C104.446 21.914 104.275 22.472 103.933 22.868C103.159 23.822 102.322 24.605 101.422 25.217C100.54 25.829 99.532 26.135 98.398 26.135C97.48 26.135 96.787 25.874 96.319 25.352C95.851 24.812 95.617 24.038 95.617 23.03C95.617 22.526 95.743 21.626 95.995 20.33C96.229 19.196 96.346 18.413 96.346 17.981C96.346 17.693 96.247 17.549 96.049 17.549C95.815 17.549 95.482 17.855 95.05 18.467C94.618 19.061 94.186 19.853 93.754 20.843C93.322 21.833 92.971 22.877 92.701 23.975C92.503 24.839 92.269 25.415 91.999 25.703C91.747 25.991 91.333 26.135 90.757 26.135C90.163 26.135 89.713 25.856 89.407 25.298C89.119 24.722 88.975 24.029 88.975 23.219C88.975 22.535 89.065 21.545 89.245 20.249C89.389 19.097 89.461 18.341 89.461 17.981C89.461 17.693 89.362 17.549 89.164 17.549C88.894 17.549 88.552 17.873 88.138 18.521C87.724 19.169 87.319 19.997 86.923 21.005C86.545 22.013 86.239 23.003 86.005 23.975C85.807 24.821 85.573 25.397 85.303 25.703C85.051 25.991 84.646 26.135 84.088 26.135ZM114.305 19.979C114.539 19.979 114.719 20.087 114.845 20.303C114.989 20.519 115.061 20.816 115.061 21.194C115.061 21.914 114.89 22.472 114.548 22.868C113.882 23.678 112.937 24.425 111.713 25.109C110.507 25.793 109.211 26.135 107.825 26.135C105.935 26.135 104.468 25.622 103.424 24.596C102.38 23.57 101.858 22.166 101.858 20.384C101.858 19.142 102.119 17.99 102.641 16.928C103.163 15.848 103.883 14.993 104.801 14.363C105.737 13.733 106.79 13.418 107.96 13.418C109.004 13.418 109.841 13.733 110.471 14.363C111.101 14.975 111.416 15.812 111.416 16.874C111.416 18.116 110.966 19.187 110.066 20.087C109.184 20.969 107.681 21.671 105.557 22.193C106.007 23.021 106.862 23.435 108.122 23.435C108.932 23.435 109.85 23.156 110.876 22.598C111.92 22.022 112.82 21.275 113.576 20.357C113.792 20.105 114.035 19.979 114.305 19.979ZM107.501 16.064C106.835 16.064 106.268 16.451 105.8 17.225C105.35 17.999 105.125 18.935 105.125 20.033V20.087C106.187 19.835 107.024 19.457 107.636 18.953C108.248 18.449 108.554 17.864 108.554 17.198C108.554 16.856 108.455 16.586 108.257 16.388C108.077 16.172 107.825 16.064 107.501 16.064ZM114.779 26.135C114.095 26.135 113.609 25.775 113.321 25.055C113.051 24.335 112.916 23.183 112.916 21.599C112.916 19.259 113.249 17.036 113.915 14.93C114.077 14.408 114.338 14.03 114.698 13.796C115.076 13.544 115.598 13.418 116.264 13.418C116.624 13.418 116.876 13.463 117.02 13.553C117.164 13.643 117.236 13.814 117.236 14.066C117.236 14.354 117.101 15.002 116.831 16.01C116.651 16.73 116.507 17.36 116.399 17.9C116.291 18.44 116.201 19.106 116.129 19.898C116.723 18.35 117.389 17.09 118.127 16.118C118.865 15.146 119.585 14.453 120.287 14.039C121.007 13.625 121.664 13.418 122.258 13.418C123.428 13.418 124.013 14.003 124.013 15.173C124.013 15.875 123.815 17.144 123.419 18.98C123.077 20.546 122.906 21.581 122.906 22.085C122.906 22.805 123.167 23.165 123.689 23.165C124.049 23.165 124.472 22.949 124.958 22.517C125.462 22.067 126.128 21.347 126.956 20.357C127.172 20.105 127.415 19.979 127.685 19.979C127.919 19.979 128.099 20.087 128.225 20.303C128.369 20.519 128.441 20.816 128.441 21.194C128.441 21.914 128.27 22.472 127.928 22.868C127.154 23.822 126.317 24.605 125.417 25.217C124.535 25.829 123.527 26.135 122.393 26.135C121.475 26.135 120.782 25.874 120.314 25.352C119.846 24.812 119.612 24.038 119.612 23.03C119.612 22.526 119.738 21.626 119.99 20.33C120.224 19.196 120.341 18.413 120.341 17.981C120.341 17.693 120.242 17.549 120.044 17.549C119.81 17.549 119.477 17.855 119.045 18.467C118.631 19.061 118.199 19.853 117.749 20.843C117.317 21.833 116.966 22.877 116.696 23.975C116.498 24.821 116.264 25.397 115.994 25.703C115.742 25.991 115.337 26.135 114.779 26.135ZM138.299 19.979C138.533 19.979 138.713 20.087 138.839 20.303C138.983 20.519 139.055 20.816 139.055 21.194C139.055 21.914 138.884 22.472 138.542 22.868C137.768 23.822 136.922 24.605 136.004 25.217C135.086 25.829 134.033 26.135 132.845 26.135C129.173 26.135 127.337 23.552 127.337 18.386C127.337 17.594 127.364 16.793 127.418 15.983H126.365C125.825 15.983 125.456 15.884 125.258 15.686C125.078 15.488 124.988 15.173 124.988 14.741C124.988 13.733 125.393 13.229 126.203 13.229H127.742C128.048 11.249 128.516 9.44 129.146 7.802C129.776 6.164 130.532 4.859 131.414 3.887C132.314 2.915 133.277 2.429 134.303 2.429C135.059 2.429 135.653 2.762 136.085 3.428C136.517 4.094 136.733 4.931 136.733 5.939C136.733 8.729 135.563 11.159 133.223 13.229H136.247C136.535 13.229 136.742 13.292 136.868 13.418C136.994 13.544 137.057 13.778 137.057 14.12C137.057 15.362 136.04 15.983 134.006 15.983H130.712C130.676 16.883 130.658 17.585 130.658 18.089C130.658 19.961 130.874 21.275 131.306 22.031C131.756 22.787 132.458 23.165 133.412 23.165C134.186 23.165 134.87 22.931 135.464 22.463C136.058 21.995 136.76 21.293 137.57 20.357C137.786 20.105 138.029 19.979 138.299 19.979ZM133.574 5.021C133.304 5.021 132.998 5.363 132.656 6.047C132.332 6.713 132.017 7.649 131.711 8.855C131.423 10.043 131.18 11.366 130.982 12.824C132.044 11.906 132.836 10.88 133.358 9.746C133.898 8.594 134.168 7.55 134.168 6.614C134.168 5.552 133.97 5.021 133.574 5.021ZM141.42 26.135C140.358 26.135 139.449 25.874 138.693 25.352C137.955 24.812 137.397 24.11 137.019 23.246C136.641 22.382 136.452 21.455 136.452 20.465C136.452 19.097 136.704 17.882 137.208 16.82C137.73 15.74 138.432 14.903 139.314 14.309C140.196 13.697 141.186 13.391 142.284 13.391C143.346 13.391 144.255 13.661 145.011 14.201C145.767 14.723 146.334 15.416 146.712 16.28C147.09 17.144 147.279 18.071 147.279 19.061C147.279 20.429 147.018 21.653 146.496 22.733C145.974 23.795 145.263 24.632 144.363 25.244C143.481 25.838 142.5 26.135 141.42 26.135ZM141.717 23.219C142.329 23.219 142.842 22.886 143.256 22.22C143.688 21.554 143.904 20.582 143.904 19.304C143.904 18.314 143.724 17.567 143.364 17.063C143.004 16.559 142.572 16.307 142.068 16.307C141.42 16.307 140.88 16.64 140.448 17.306C140.034 17.954 139.827 18.926 139.827 20.222C139.827 21.248 140.007 22.004 140.367 22.49C140.727 22.976 141.177 23.219 141.717 23.219Z" fill="white"/>
<defs>
<linearGradient id="paint0_linear_0_1" x1="15" y1="0" x2="15" y2="30" gradientUnits="userSpaceOnUse">
<stop stop-color="#877EFF"/>
<stop offset="0.461458" stop-color="#685DFF"/>
<stop offset="1" stop-color="#3121FF"/>
</linearGradient>
</defs>
</svg>
